G04*
G04 #@! TF.GenerationSoftware,Altium Limited,Altium Designer,18.1.6 (161)*
G04*
G04 Layer_Color=8421504*
%FSLAX25Y25*%
%MOIN*%
G70*
G01*
G75*
G04:AMPARAMS|DCode=17|XSize=51.18mil|YSize=31.5mil|CornerRadius=3.94mil|HoleSize=0mil|Usage=FLASHONLY|Rotation=270.000|XOffset=0mil|YOffset=0mil|HoleType=Round|Shape=RoundedRectangle|*
%AMROUNDEDRECTD17*
21,1,0.05118,0.02362,0,0,270.0*
21,1,0.04331,0.03150,0,0,270.0*
1,1,0.00787,-0.01181,-0.02165*
1,1,0.00787,-0.01181,0.02165*
1,1,0.00787,0.01181,0.02165*
1,1,0.00787,0.01181,-0.02165*
%
%ADD17ROUNDEDRECTD17*%
%ADD18R,0.03950X0.03900*%
G04:AMPARAMS|DCode=19|XSize=51.18mil|YSize=31.5mil|CornerRadius=3.94mil|HoleSize=0mil|Usage=FLASHONLY|Rotation=0.000|XOffset=0mil|YOffset=0mil|HoleType=Round|Shape=RoundedRectangle|*
%AMROUNDEDRECTD19*
21,1,0.05118,0.02362,0,0,0.0*
21,1,0.04331,0.03150,0,0,0.0*
1,1,0.00787,0.02165,-0.01181*
1,1,0.00787,-0.02165,-0.01181*
1,1,0.00787,-0.02165,0.01181*
1,1,0.00787,0.02165,0.01181*
%
%ADD19ROUNDEDRECTD19*%
G04:AMPARAMS|DCode=20|XSize=55.12mil|YSize=39.37mil|CornerRadius=4.92mil|HoleSize=0mil|Usage=FLASHONLY|Rotation=270.000|XOffset=0mil|YOffset=0mil|HoleType=Round|Shape=RoundedRectangle|*
%AMROUNDEDRECTD20*
21,1,0.05512,0.02953,0,0,270.0*
21,1,0.04528,0.03937,0,0,270.0*
1,1,0.00984,-0.01476,-0.02264*
1,1,0.00984,-0.01476,0.02264*
1,1,0.00984,0.01476,0.02264*
1,1,0.00984,0.01476,-0.02264*
%
%ADD20ROUNDEDRECTD20*%
G04:AMPARAMS|DCode=21|XSize=55.12mil|YSize=39.37mil|CornerRadius=4.92mil|HoleSize=0mil|Usage=FLASHONLY|Rotation=180.000|XOffset=0mil|YOffset=0mil|HoleType=Round|Shape=RoundedRectangle|*
%AMROUNDEDRECTD21*
21,1,0.05512,0.02953,0,0,180.0*
21,1,0.04528,0.03937,0,0,180.0*
1,1,0.00984,-0.02264,0.01476*
1,1,0.00984,0.02264,0.01476*
1,1,0.00984,0.02264,-0.01476*
1,1,0.00984,-0.02264,-0.01476*
%
%ADD21ROUNDEDRECTD21*%
%ADD22R,0.04724X0.04331*%
%ADD23R,0.03937X0.07874*%
%ADD24R,0.02756X0.03150*%
%ADD25R,0.00787X0.02559*%
%ADD26R,0.02559X0.00787*%
%ADD27R,0.18504X0.18504*%
D17*
X143012Y105118D02*
D03*
X135138D02*
D03*
X98130Y107087D02*
D03*
X106004D02*
D03*
Y99213D02*
D03*
X98130D02*
D03*
D18*
X109559Y161024D02*
D03*
X117409D02*
D03*
X109559Y151969D02*
D03*
X117409D02*
D03*
X83575D02*
D03*
X91425D02*
D03*
D19*
X46555Y113779D02*
D03*
Y105905D02*
D03*
D20*
X115453Y105118D02*
D03*
X122539D02*
D03*
X131201Y161024D02*
D03*
X124114D02*
D03*
X130807Y151575D02*
D03*
X123721D02*
D03*
X68209Y151969D02*
D03*
X75295D02*
D03*
X98130Y161811D02*
D03*
X91043D02*
D03*
X76870Y118405D02*
D03*
X83957D02*
D03*
X96949Y151969D02*
D03*
X104035D02*
D03*
X76476Y142224D02*
D03*
X83563D02*
D03*
X78347Y131890D02*
D03*
X85433D02*
D03*
X69784Y122441D02*
D03*
X62697D02*
D03*
D21*
X54036Y135433D02*
D03*
Y128347D02*
D03*
D22*
X69587Y129921D02*
D03*
X62894D02*
D03*
Y135433D02*
D03*
X69587D02*
D03*
D23*
X106693Y14173D02*
D03*
X90158Y14173D02*
D03*
D24*
X135925Y114173D02*
D03*
X143012D02*
D03*
D25*
X98130Y142224D02*
D03*
X101279D02*
D03*
X99705D02*
D03*
X104429D02*
D03*
X102854D02*
D03*
X107579D02*
D03*
X106004D02*
D03*
X109153D02*
D03*
X112303D02*
D03*
X110728D02*
D03*
X115453D02*
D03*
X113878D02*
D03*
X99705Y118406D02*
D03*
X98130D02*
D03*
X106004D02*
D03*
X104429D02*
D03*
X107579D02*
D03*
X101279D02*
D03*
X102854D02*
D03*
X112303D02*
D03*
X109153D02*
D03*
X110728D02*
D03*
X113878D02*
D03*
X115453D02*
D03*
D26*
X94882Y138976D02*
D03*
Y135827D02*
D03*
Y134252D02*
D03*
Y137402D02*
D03*
Y131102D02*
D03*
Y129528D02*
D03*
Y132677D02*
D03*
X118701Y138976D02*
D03*
Y137402D02*
D03*
Y135827D02*
D03*
Y132677D02*
D03*
Y131102D02*
D03*
Y134252D02*
D03*
Y127953D02*
D03*
Y129528D02*
D03*
X94882Y126378D02*
D03*
Y124803D02*
D03*
Y127953D02*
D03*
Y123228D02*
D03*
Y121654D02*
D03*
X118701Y124803D02*
D03*
Y123228D02*
D03*
Y126378D02*
D03*
Y121654D02*
D03*
D27*
X106791Y130315D02*
D03*
M02*
