G04*
G04 #@! TF.GenerationSoftware,Altium Limited,Altium Designer,18.1.6 (161)*
G04*
G04 Layer_Color=65535*
%FSLAX25Y25*%
%MOIN*%
G70*
G01*
G75*
%ADD10C,0.00600*%
%ADD11C,0.00984*%
%ADD12C,0.00500*%
%ADD13C,0.00800*%
%ADD14C,0.00787*%
%ADD15C,0.00394*%
%ADD16R,0.01181X0.05118*%
D10*
X122684Y161024D02*
G03*
X122684Y161024I-300J0D01*
G01*
Y151969D02*
G03*
X122684Y151969I-300J0D01*
G01*
X96700D02*
G03*
X96700Y151969I-300J0D01*
G01*
X108634Y157674D02*
X118334D01*
X108634Y164374D02*
X118334D01*
X108634Y148618D02*
X118334D01*
X108634Y155318D02*
X118334D01*
X82650Y148618D02*
X92350D01*
X82650Y155318D02*
X92350D01*
X60236Y131910D02*
X60236Y133366D01*
X63287Y127461D02*
X69193D01*
X63287Y137894D02*
X69154Y137894D01*
X72342Y131988D02*
Y133366D01*
D11*
X98622Y114961D02*
G03*
X98622Y114961I-492J0D01*
G01*
D12*
X137575Y102618D02*
X140575D01*
X137575Y107618D02*
X140575D01*
X100567Y109587D02*
X103567D01*
X100567Y104587D02*
X103567D01*
X100567Y96713D02*
X103567D01*
X100567Y101713D02*
X103567D01*
X49055Y108343D02*
Y111343D01*
X44055Y108343D02*
Y111343D01*
X118407Y102554D02*
Y107682D01*
X119585Y102554D02*
Y107682D01*
X128246Y158460D02*
Y163587D01*
X127068Y158460D02*
Y163587D01*
X127853Y149011D02*
Y154139D01*
X126675Y149011D02*
Y154139D01*
X71163Y149405D02*
Y154532D01*
X72341Y149405D02*
Y154532D01*
X95176Y159247D02*
Y164375D01*
X93998Y159247D02*
Y164375D01*
X79824Y115842D02*
Y120969D01*
X81002Y115842D02*
Y120969D01*
X99903Y149405D02*
Y154532D01*
X101081Y149405D02*
Y154532D01*
X79431Y139661D02*
Y144788D01*
X80609Y139661D02*
Y144788D01*
X81301Y129326D02*
Y134454D01*
X82479Y129326D02*
Y134454D01*
X51472Y132479D02*
X56599D01*
X51472Y131301D02*
X56599D01*
X66829Y119877D02*
Y125005D01*
X65651Y119877D02*
Y125005D01*
D13*
X179390Y89213D02*
X184390D01*
X179390Y109213D02*
X184390D01*
X186890Y91713D02*
Y96713D01*
X184390Y89213D02*
X186890Y91713D01*
X176890D02*
X179390Y89213D01*
X184390D02*
X186890Y86713D01*
Y81713D02*
Y86713D01*
X184390Y79213D02*
X186890Y81713D01*
X176890D02*
X179390Y79213D01*
X176890Y81713D02*
Y86713D01*
X179390Y89213D01*
X184390Y99213D02*
X186890Y96713D01*
X176890D02*
X179390Y99213D01*
X176890Y91713D02*
Y96713D01*
X179390Y79213D02*
X184390D01*
X179390Y99213D02*
X184390D01*
X176890Y111713D02*
Y116713D01*
X179390Y119213D01*
X184390D02*
X186890Y116713D01*
X179390Y119213D02*
X184390D01*
X176890Y106713D02*
X179390Y109213D01*
X176890Y101713D02*
Y106713D01*
Y101713D02*
X179390Y99213D01*
X184390D02*
X186890Y101713D01*
Y106713D01*
X184390Y109213D02*
X186890Y106713D01*
X176890Y111713D02*
X179390Y109213D01*
X184390D02*
X186890Y111713D01*
Y116713D01*
X13248Y110394D02*
X18248D01*
X20748Y92894D02*
Y97894D01*
X18248Y90394D02*
X20748Y92894D01*
X10748D02*
X13248Y90394D01*
X18248D01*
Y100394D02*
X20748Y102894D01*
Y107894D01*
X18248Y110394D02*
X20748Y107894D01*
X10748D02*
X13248Y110394D01*
X10748Y102894D02*
Y107894D01*
Y102894D02*
X13248Y100394D01*
X18248D02*
X20748Y97894D01*
X10748D02*
X13248Y100394D01*
X10748Y92894D02*
Y97894D01*
X164035Y122697D02*
Y127697D01*
X146535Y120197D02*
X151535D01*
X144035Y122697D02*
X146535Y120197D01*
X144035Y127697D02*
X146535Y130197D01*
X144035Y122697D02*
Y127697D01*
X154035Y122697D02*
X156535Y120197D01*
X161535D01*
X164035Y122697D01*
X161535Y130197D02*
X164035Y127697D01*
X156535Y130197D02*
X161535D01*
X154035Y127697D02*
X156535Y130197D01*
X151535Y120197D02*
X154035Y122697D01*
X151535Y130197D02*
X154035Y127697D01*
X146535Y130197D02*
X151535D01*
D14*
X90551Y19094D02*
Y19980D01*
Y8366D02*
Y9154D01*
X106299Y19193D02*
Y19980D01*
Y8366D02*
Y9252D01*
X90551Y8366D02*
X94685D01*
X101969D02*
X106299D01*
X90551Y19980D02*
X94882D01*
X101870D02*
X106299D01*
X132382Y116732D02*
X145374Y116732D01*
Y111614D02*
Y116732D01*
X133563Y111614D02*
Y116732D01*
X132382Y111614D02*
Y116732D01*
Y111614D02*
X145374Y111614D01*
X94980Y142126D02*
X96949D01*
X94980Y140157D02*
Y142126D01*
X116634D02*
X118602D01*
Y140157D02*
Y142126D01*
X94980Y120472D02*
X96949Y118504D01*
X118602D02*
Y120472D01*
X116634Y118504D02*
X118602D01*
D15*
X143012Y178739D02*
Y177165D01*
X143799Y176378D01*
X144586Y177165D01*
Y178739D01*
X145373Y176378D02*
X146160D01*
X145767D01*
Y178739D01*
X145373Y178346D01*
X147341Y176378D02*
Y176771D01*
X147735D01*
Y176378D01*
X147341D01*
X150883D02*
X149309D01*
X150883Y177952D01*
Y178346D01*
X150490Y178739D01*
X149703D01*
X149309Y178346D01*
X22048Y104330D02*
X21654Y103937D01*
Y103149D01*
X22048Y102756D01*
X23622D01*
X24016Y103149D01*
Y103937D01*
X23622Y104330D01*
X22835D01*
Y103543D01*
X24016Y105117D02*
X21654D01*
X24016Y106692D01*
X21654D01*
Y107479D02*
X24016D01*
Y108660D01*
X23622Y109053D01*
X22048D01*
X21654Y108660D01*
Y107479D01*
X22048Y92913D02*
X21654Y92519D01*
Y91732D01*
X22048Y91339D01*
X22442D01*
X22835Y91732D01*
Y92519D01*
X23229Y92913D01*
X23622D01*
X24016Y92519D01*
Y91732D01*
X23622Y91339D01*
X21654Y95274D02*
Y93700D01*
X24016D01*
Y95274D01*
X22835Y93700D02*
Y94487D01*
X24016Y96061D02*
X21654D01*
X24016Y97636D01*
X21654D01*
X190552Y82283D02*
X190158Y81889D01*
Y81102D01*
X190552Y80709D01*
X192126D01*
X192520Y81102D01*
Y81889D01*
X192126Y82283D01*
X191339D01*
Y81496D01*
X192520Y83070D02*
X190158D01*
X192520Y84644D01*
X190158D01*
Y85431D02*
X192520D01*
Y86612D01*
X192126Y87006D01*
X190552D01*
X190158Y86612D01*
Y85431D01*
X171654Y89370D02*
X173229D01*
X174016Y90157D01*
X173229Y90944D01*
X171654D01*
X174409Y91732D02*
Y93306D01*
X171654Y94093D02*
X174016D01*
Y95274D01*
X173622Y95667D01*
X173229D01*
X172835Y95274D01*
Y94093D01*
Y95274D01*
X172441Y95667D01*
X172048D01*
X171654Y95274D01*
Y94093D01*
X174016Y96454D02*
X172441D01*
X171654Y97241D01*
X172441Y98029D01*
X174016D01*
X172835D01*
Y96454D01*
X171654Y98816D02*
Y100390D01*
Y99603D01*
X174016D01*
X190945Y100787D02*
X190552Y100393D01*
Y99606D01*
X190945Y99213D01*
X191339D01*
X191733Y99606D01*
Y100393D01*
X192126Y100787D01*
X192520D01*
X192913Y100393D01*
Y99606D01*
X192520Y99213D01*
X190552Y101574D02*
X192913D01*
X192126Y102361D01*
X192913Y103148D01*
X190552D01*
Y103936D02*
X192913D01*
Y105116D01*
X192520Y105510D01*
X190945D01*
X190552Y105116D01*
Y103936D01*
Y106297D02*
Y107084D01*
Y106691D01*
X192913D01*
Y106297D01*
Y107084D01*
X190552Y109446D02*
Y108658D01*
X190945Y108265D01*
X192520D01*
X192913Y108658D01*
Y109446D01*
X192520Y109839D01*
X190945D01*
X190552Y109446D01*
X172048Y111023D02*
X171654Y110629D01*
Y109842D01*
X172048Y109449D01*
X172441D01*
X172835Y109842D01*
Y110629D01*
X173229Y111023D01*
X173622D01*
X174016Y110629D01*
Y109842D01*
X173622Y109449D01*
X171654Y111810D02*
X174016D01*
X173229Y112597D01*
X174016Y113384D01*
X171654D01*
X172048Y115746D02*
X171654Y115352D01*
Y114565D01*
X172048Y114172D01*
X173622D01*
X174016Y114565D01*
Y115352D01*
X173622Y115746D01*
X171654Y116533D02*
X174016D01*
Y118107D01*
X171654Y118895D02*
X174016D01*
X173229D01*
X171654Y120469D01*
X172835Y119288D01*
X174016Y120469D01*
X157578Y134251D02*
X157185Y134645D01*
X156397D01*
X156004Y134251D01*
Y132677D01*
X156397Y132283D01*
X157185D01*
X157578Y132677D01*
Y133464D01*
X156791D01*
X158365Y132283D02*
Y134645D01*
X159940Y132283D01*
Y134645D01*
X160727D02*
Y132283D01*
X161907D01*
X162301Y132677D01*
Y134251D01*
X161907Y134645D01*
X160727D01*
X146457Y134645D02*
X148031D01*
X147244D01*
Y132283D01*
X148818Y134645D02*
X150392Y132283D01*
Y134645D02*
X148818Y132283D01*
X151180Y134645D02*
Y132283D01*
X152360D01*
X152754Y132677D01*
Y134251D01*
X152360Y134645D01*
X151180D01*
X146968Y103937D02*
Y106298D01*
X148149D01*
X148543Y105905D01*
Y105118D01*
X148149Y104724D01*
X146968D01*
X147756D02*
X148543Y103937D01*
X149330D02*
X150117D01*
X149723D01*
Y106298D01*
X149330Y105905D01*
X44587Y117717D02*
Y120078D01*
X45767D01*
X46161Y119684D01*
Y118897D01*
X45767Y118504D01*
X44587D01*
X45374D02*
X46161Y117717D01*
X46948Y118110D02*
X47342Y117717D01*
X48129D01*
X48522Y118110D01*
Y119684D01*
X48129Y120078D01*
X47342D01*
X46948Y119684D01*
Y119291D01*
X47342Y118897D01*
X48522D01*
X99273Y111343D02*
Y113704D01*
X100454D01*
X100847Y113310D01*
Y112523D01*
X100454Y112130D01*
X99273D01*
X100060D02*
X100847Y111343D01*
X101635D02*
X102422D01*
X102028D01*
Y113704D01*
X101635Y113310D01*
X105177Y111343D02*
X103603D01*
X105177Y112917D01*
Y113310D01*
X104783Y113704D01*
X103996D01*
X103603Y113310D01*
X6694Y89764D02*
Y91338D01*
Y90551D01*
X9055D01*
X6694Y92125D02*
X9055D01*
X7874D01*
Y93700D01*
X6694D01*
X9055D01*
X6694Y96061D02*
Y94487D01*
X9055D01*
Y96061D01*
X7874Y94487D02*
Y95274D01*
X9055Y96848D02*
X6694D01*
Y98029D01*
X7087Y98422D01*
X7874D01*
X8268Y98029D01*
Y96848D01*
Y97635D02*
X9055Y98422D01*
Y99209D02*
X6694D01*
X7481Y99997D01*
X6694Y100784D01*
X9055D01*
X6694Y101571D02*
Y102358D01*
Y101964D01*
X9055D01*
Y101571D01*
Y102358D01*
X7087Y105113D02*
X6694Y104720D01*
Y103932D01*
X7087Y103539D01*
X7481D01*
X7874Y103932D01*
Y104720D01*
X8268Y105113D01*
X8662D01*
X9055Y104720D01*
Y103932D01*
X8662Y103539D01*
X6694Y105900D02*
Y107475D01*
Y106687D01*
X9055D01*
X6694Y109442D02*
Y108655D01*
X7087Y108262D01*
X8662D01*
X9055Y108655D01*
Y109442D01*
X8662Y109836D01*
X7087D01*
X6694Y109442D01*
X9055Y110623D02*
X6694D01*
Y111804D01*
X7087Y112197D01*
X7874D01*
X8268Y111804D01*
Y110623D01*
Y111410D02*
X9055Y112197D01*
X81102Y14566D02*
X80708Y14960D01*
X79921D01*
X79528Y14566D01*
Y14173D01*
X79921Y13779D01*
X80708D01*
X81102Y13386D01*
Y12992D01*
X80708Y12598D01*
X79921D01*
X79528Y12992D01*
X81889Y14960D02*
Y12598D01*
X82676Y13386D01*
X83463Y12598D01*
Y14960D01*
X84250Y12598D02*
X85038D01*
X84644D01*
Y14960D01*
X84250Y14566D01*
X180315Y120866D02*
Y123228D01*
X181496D01*
X181889Y122834D01*
Y122047D01*
X181496Y121653D01*
X180315D01*
X184251Y123228D02*
X182676D01*
Y122047D01*
X183464Y122440D01*
X183857D01*
X184251Y122047D01*
Y121260D01*
X183857Y120866D01*
X183070D01*
X182676Y121260D01*
X165453Y124016D02*
Y126377D01*
X166633D01*
X167027Y125984D01*
Y125197D01*
X166633Y124803D01*
X165453D01*
X167814Y125984D02*
X168208Y126377D01*
X168995D01*
X169388Y125984D01*
Y125590D01*
X168995Y125197D01*
X168601D01*
X168995D01*
X169388Y124803D01*
Y124409D01*
X168995Y124016D01*
X168208D01*
X167814Y124409D01*
X66240Y116928D02*
X65846Y117322D01*
X65059D01*
X64665Y116928D01*
Y115354D01*
X65059Y114961D01*
X65846D01*
X66240Y115354D01*
X67027Y114961D02*
X67814D01*
X67420D01*
Y117322D01*
X67027Y116928D01*
X48524Y131889D02*
X48131Y131496D01*
Y130709D01*
X48524Y130315D01*
X50099D01*
X50492Y130709D01*
Y131496D01*
X50099Y131889D01*
X50492Y134251D02*
Y132676D01*
X48918Y134251D01*
X48524D01*
X48131Y133857D01*
Y133070D01*
X48524Y132676D01*
X81102Y127558D02*
X80708Y127952D01*
X79921D01*
X79528Y127558D01*
Y125984D01*
X79921Y125591D01*
X80708D01*
X81102Y125984D01*
X81889Y127558D02*
X82283Y127952D01*
X83070D01*
X83463Y127558D01*
Y127165D01*
X83070Y126771D01*
X82676D01*
X83070D01*
X83463Y126378D01*
Y125984D01*
X83070Y125591D01*
X82283D01*
X81889Y125984D01*
X70177Y143700D02*
X69783Y144094D01*
X68996D01*
X68602Y143700D01*
Y142126D01*
X68996Y141732D01*
X69783D01*
X70177Y142126D01*
X72145Y141732D02*
Y144094D01*
X70964Y142913D01*
X72538D01*
X103484Y158267D02*
X103090Y158661D01*
X102303D01*
X101909Y158267D01*
Y156693D01*
X102303Y156299D01*
X103090D01*
X103484Y156693D01*
X105845Y158661D02*
X104271D01*
Y157480D01*
X105058Y157873D01*
X105452D01*
X105845Y157480D01*
Y156693D01*
X105452Y156299D01*
X104665D01*
X104271Y156693D01*
X80019Y113385D02*
X79626Y113779D01*
X78838D01*
X78445Y113385D01*
Y111811D01*
X78838Y111417D01*
X79626D01*
X80019Y111811D01*
X82381Y113779D02*
X81594Y113385D01*
X80806Y112598D01*
Y111811D01*
X81200Y111417D01*
X81987D01*
X82381Y111811D01*
Y112205D01*
X81987Y112598D01*
X80806D01*
X104035Y162598D02*
X103641Y162991D01*
X102854D01*
X102461Y162598D01*
Y161023D01*
X102854Y160630D01*
X103641D01*
X104035Y161023D01*
X104822Y162991D02*
X106396D01*
Y162598D01*
X104822Y161023D01*
Y160630D01*
X61810Y152755D02*
X61417Y153149D01*
X60630D01*
X60236Y152755D01*
Y151181D01*
X60630Y150787D01*
X61417D01*
X61810Y151181D01*
X62598Y152755D02*
X62991Y153149D01*
X63778D01*
X64172Y152755D01*
Y152362D01*
X63778Y151968D01*
X64172Y151575D01*
Y151181D01*
X63778Y150787D01*
X62991D01*
X62598Y151181D01*
Y151575D01*
X62991Y151968D01*
X62598Y152362D01*
Y152755D01*
X62991Y151968D02*
X63778D01*
X136712Y152362D02*
X136319Y152755D01*
X135531D01*
X135138Y152362D01*
Y150787D01*
X135531Y150394D01*
X136319D01*
X136712Y150787D01*
X137499Y150394D02*
X138286D01*
X137893D01*
Y152755D01*
X137499Y152362D01*
X139467D02*
X139861Y152755D01*
X140648D01*
X141041Y152362D01*
Y150787D01*
X140648Y150394D01*
X139861D01*
X139467Y150787D01*
Y152362D01*
X126476Y168110D02*
X126082Y168503D01*
X125295D01*
X124902Y168110D01*
Y166535D01*
X125295Y166142D01*
X126082D01*
X126476Y166535D01*
X127263Y166142D02*
X128050D01*
X127657D01*
Y168503D01*
X127263Y168110D01*
X129231Y166142D02*
X130018D01*
X129624D01*
Y168503D01*
X129231Y168110D01*
X117815Y112204D02*
X117421Y112598D01*
X116634D01*
X116240Y112204D01*
Y110630D01*
X116634Y110236D01*
X117421D01*
X117815Y110630D01*
X118602Y110236D02*
X119389D01*
X118995D01*
Y112598D01*
X118602Y112204D01*
X122144Y110236D02*
X120570D01*
X122144Y111811D01*
Y112204D01*
X121750Y112598D01*
X120963D01*
X120570Y112204D01*
X84744Y159054D02*
Y156693D01*
X86318D01*
X87106D02*
X87893D01*
X87499D01*
Y159054D01*
X87106Y158661D01*
X106496Y157873D02*
Y155512D01*
X108070D01*
X110432D02*
X108858D01*
X110432Y157086D01*
Y157480D01*
X110038Y157873D01*
X109251D01*
X108858Y157480D01*
X110728Y168503D02*
Y166142D01*
X112303D01*
X113090Y168110D02*
X113483Y168503D01*
X114270D01*
X114664Y168110D01*
Y167716D01*
X114270Y167323D01*
X113877D01*
X114270D01*
X114664Y166929D01*
Y166535D01*
X114270Y166142D01*
X113483D01*
X113090Y166535D01*
X146968Y114960D02*
Y112598D01*
X148543D01*
X150904Y114960D02*
X149330D01*
Y112598D01*
X150904D01*
X149330Y113779D02*
X150117D01*
X151691Y114960D02*
Y112598D01*
X152872D01*
X153266Y112992D01*
Y114566D01*
X152872Y114960D01*
X151691D01*
X154053Y112598D02*
X154840D01*
X154446D01*
Y114960D01*
X154053Y114566D01*
X122684Y142913D02*
Y140945D01*
X123078Y140551D01*
X123865D01*
X124258Y140945D01*
Y142913D01*
X125046Y140551D02*
X125833D01*
X125439D01*
Y142913D01*
X125046Y142519D01*
X67421Y140944D02*
X68996Y138583D01*
Y140944D02*
X67421Y138583D01*
X69783D02*
X70570D01*
X70176D01*
Y140944D01*
X69783Y140550D01*
X100098Y92913D02*
Y95275D01*
X101279D01*
X101673Y94881D01*
Y94094D01*
X101279Y93700D01*
X100098D01*
X100886D02*
X101673Y92913D01*
X102460D02*
X103247D01*
X102853D01*
Y95275D01*
X102460Y94881D01*
X104428Y92913D02*
X105215D01*
X104821D01*
Y95275D01*
X104428Y94881D01*
D16*
X132973Y114173D02*
D03*
M02*
