G04*
G04 #@! TF.GenerationSoftware,Altium Limited,Altium Designer,18.1.6 (161)*
G04*
G04 Layer_Physical_Order=2*
G04 Layer_Color=16711680*
%FSLAX25Y25*%
%MOIN*%
G70*
G01*
G75*
%ADD14C,0.00787*%
%ADD41C,0.02756*%
%ADD43C,0.01968*%
%ADD53C,0.05906*%
%ADD54R,0.05906X0.05906*%
%ADD55R,0.05906X0.05906*%
%ADD56C,0.03543*%
%ADD57C,0.02362*%
%ADD58C,0.02598*%
%ADD59R,0.08661X0.11024*%
G36*
X163037Y171357D02*
X167322Y167322D01*
X171357Y163037D01*
X175125Y158516D01*
X178613Y153775D01*
X181809Y148832D01*
X184700Y143706D01*
X187276Y138414D01*
X189529Y132976D01*
X191449Y127412D01*
X193029Y121743D01*
X194265Y115988D01*
X195150Y110170D01*
X195683Y104308D01*
X195861Y98425D01*
X195683Y92542D01*
X195150Y86681D01*
X194265Y80862D01*
X193029Y75107D01*
X191449Y69438D01*
X189529Y63874D01*
X187276Y58437D01*
X184700Y53145D01*
X181809Y48018D01*
X178613Y43076D01*
X175125Y38335D01*
X171357Y33814D01*
X167322Y29528D01*
X163037Y25494D01*
X158516Y21726D01*
X153775Y18237D01*
X148832Y15042D01*
X143706Y12150D01*
X138414Y9574D01*
X132976Y7322D01*
X127412Y5402D01*
X121743Y3821D01*
X115988Y2586D01*
X110170Y1700D01*
X104308Y1168D01*
X98425Y990D01*
X92542Y1168D01*
X86681Y1700D01*
X80862Y2586D01*
X75107Y3821D01*
X69438Y5402D01*
X63874Y7322D01*
X58437Y9574D01*
X53145Y12150D01*
X48018Y15042D01*
X43076Y18237D01*
X38335Y21726D01*
X33814Y25494D01*
X29528Y29528D01*
X25494Y33814D01*
X21726Y38335D01*
X18237Y43076D01*
X15042Y48018D01*
X12150Y53145D01*
X9574Y58437D01*
X7322Y63874D01*
X5402Y69438D01*
X3821Y75107D01*
X2586Y80862D01*
X1700Y86681D01*
X1168Y92542D01*
X990Y98425D01*
X1168Y104308D01*
X1700Y110170D01*
X2586Y115988D01*
X3821Y121743D01*
X5402Y127412D01*
X7322Y132976D01*
X9574Y138414D01*
X12150Y143706D01*
X15042Y148832D01*
X18237Y153775D01*
X21726Y158516D01*
X25494Y163037D01*
X29528Y167322D01*
X33814Y171357D01*
X36059Y173228D01*
X160791D01*
X163037Y171357D01*
D02*
G37*
%LPC*%
G36*
X91831Y144231D02*
X91063Y144079D01*
X90412Y143644D01*
X89976Y142992D01*
X89824Y142224D01*
X89976Y141456D01*
X90024Y141385D01*
Y141265D01*
X89524Y140894D01*
X89075Y140983D01*
X88821Y140933D01*
X86777Y142977D01*
X86386Y143239D01*
X85925Y143330D01*
X85925Y143330D01*
X67081D01*
X66872Y143644D01*
X66221Y144079D01*
X65453Y144231D01*
X64685Y144079D01*
X64034Y143644D01*
X63599Y142992D01*
X63446Y142224D01*
X63599Y141456D01*
X64034Y140805D01*
X64685Y140370D01*
X65453Y140217D01*
X66221Y140370D01*
X66872Y140805D01*
X66950Y140922D01*
X85426D01*
X87118Y139230D01*
X87068Y138976D01*
X87221Y138208D01*
X87656Y137557D01*
X88307Y137122D01*
X89075Y136969D01*
X89524Y137059D01*
X90024Y136688D01*
Y119245D01*
X89976Y119174D01*
X89824Y118405D01*
X89976Y117638D01*
X90024Y117566D01*
Y100052D01*
X89976Y99981D01*
X89824Y99213D01*
X89976Y98444D01*
X90412Y97793D01*
X91063Y97358D01*
X91831Y97206D01*
X92599Y97358D01*
X93250Y97793D01*
X93685Y98444D01*
X93838Y99213D01*
X93685Y99981D01*
X93637Y100052D01*
Y116599D01*
X100531D01*
X107801Y109329D01*
X107549Y108874D01*
X107252Y108874D01*
X103346D01*
Y103346D01*
X107693D01*
Y108398D01*
X107693Y108730D01*
X108148Y108983D01*
X115437Y101694D01*
X115245Y101178D01*
X114685Y101067D01*
X114424Y100893D01*
X114368Y100882D01*
X113782Y100490D01*
X113390Y99904D01*
X113253Y99213D01*
X113390Y98521D01*
X113782Y97935D01*
X114368Y97544D01*
X114424Y97533D01*
X114685Y97358D01*
X115453Y97206D01*
X116221Y97358D01*
X116293Y97406D01*
X126719D01*
X126791Y97358D01*
X127559Y97206D01*
X128327Y97358D01*
X128978Y97793D01*
X129413Y98444D01*
X129566Y99213D01*
X129413Y99981D01*
X128978Y100632D01*
X128327Y101067D01*
X127559Y101220D01*
X126791Y101067D01*
X126719Y101019D01*
X121221D01*
X102557Y119683D01*
X101971Y120074D01*
X101279Y120212D01*
X93637D01*
Y141385D01*
X93685Y141456D01*
X93838Y142224D01*
X93685Y142992D01*
X93250Y143644D01*
X92599Y144079D01*
X91831Y144231D01*
D02*
G37*
G36*
X160020Y129054D02*
Y126181D01*
X162893D01*
X162886Y126229D01*
X162488Y127190D01*
X161855Y128016D01*
X161029Y128650D01*
X160067Y129048D01*
X160020Y129054D01*
D02*
G37*
G36*
X158051D02*
X158004Y129048D01*
X157042Y128650D01*
X156216Y128016D01*
X155583Y127190D01*
X155184Y126229D01*
X155178Y126181D01*
X158051D01*
Y129054D01*
D02*
G37*
G36*
X152776Y128937D02*
X145295D01*
Y121457D01*
X152776D01*
Y128937D01*
D02*
G37*
G36*
X162893Y124213D02*
X160020D01*
Y121340D01*
X160067Y121346D01*
X161029Y121744D01*
X161855Y122378D01*
X162488Y123203D01*
X162886Y124165D01*
X162893Y124213D01*
D02*
G37*
G36*
X158051D02*
X155178D01*
X155184Y124165D01*
X155583Y123203D01*
X156216Y122378D01*
X157042Y121744D01*
X158004Y121346D01*
X158051Y121340D01*
Y124213D01*
D02*
G37*
G36*
X185630Y117953D02*
X178150D01*
Y110473D01*
X185630D01*
Y117953D01*
D02*
G37*
G36*
X16732Y109251D02*
Y106378D01*
X19605D01*
X19599Y106426D01*
X19201Y107387D01*
X18567Y108213D01*
X17741Y108846D01*
X16780Y109245D01*
X16732Y109251D01*
D02*
G37*
G36*
X14764Y109251D02*
X14716Y109245D01*
X13755Y108846D01*
X12929Y108213D01*
X12295Y107387D01*
X11897Y106426D01*
X11891Y106378D01*
X14764D01*
Y109251D01*
D02*
G37*
G36*
X147063Y108874D02*
X142717D01*
Y103347D01*
X147063D01*
Y108874D01*
D02*
G37*
G36*
X140748D02*
X136402D01*
Y103347D01*
X140748D01*
Y108874D01*
D02*
G37*
G36*
X101378Y108874D02*
X97031D01*
Y103346D01*
X101378D01*
Y108874D01*
D02*
G37*
G36*
X14764Y104410D02*
X11891D01*
X11897Y104362D01*
X12295Y103400D01*
X12929Y102575D01*
X13755Y101941D01*
X14716Y101543D01*
X14764Y101536D01*
Y104410D01*
D02*
G37*
G36*
X19605D02*
X16732D01*
Y101536D01*
X16780Y101543D01*
X17741Y101941D01*
X18567Y102575D01*
X19201Y103400D01*
X19599Y104362D01*
X19605Y104410D01*
D02*
G37*
G36*
X181890Y107985D02*
X180913Y107857D01*
X180004Y107480D01*
X179222Y106880D01*
X178623Y106099D01*
X178246Y105189D01*
X178117Y104213D01*
X178246Y103236D01*
X178623Y102326D01*
X179222Y101545D01*
X180004Y100946D01*
X180913Y100569D01*
X181890Y100440D01*
X182866Y100569D01*
X183776Y100946D01*
X184557Y101545D01*
X185157Y102326D01*
X185534Y103236D01*
X185662Y104213D01*
X185534Y105189D01*
X185157Y106099D01*
X184557Y106880D01*
X183776Y107480D01*
X182866Y107857D01*
X181890Y107985D01*
D02*
G37*
G36*
X60236Y108661D02*
X50000D01*
Y96063D01*
X60236D01*
Y100556D01*
X61063D01*
X63290Y98329D01*
X63876Y97937D01*
X64567Y97800D01*
X69420D01*
X69435Y97781D01*
X69969Y97371D01*
X70592Y97113D01*
X71260Y97025D01*
X71928Y97113D01*
X72550Y97371D01*
X73085Y97781D01*
X73495Y98316D01*
X73753Y98938D01*
X73841Y99606D01*
X73753Y100274D01*
X73495Y100897D01*
X73085Y101431D01*
X72550Y101842D01*
X71928Y102100D01*
X71260Y102187D01*
X70592Y102100D01*
X69969Y101842D01*
X69435Y101431D01*
X69420Y101413D01*
X65315D01*
X63088Y103639D01*
X62502Y104031D01*
X61811Y104169D01*
X60236D01*
Y108661D01*
D02*
G37*
G36*
X147063Y101378D02*
X142717D01*
Y95850D01*
X147063D01*
Y101378D01*
D02*
G37*
G36*
X140748D02*
X136402D01*
Y95850D01*
X140748D01*
Y101378D01*
D02*
G37*
G36*
X107693Y101378D02*
X103346D01*
Y95850D01*
X107693D01*
Y101378D01*
D02*
G37*
G36*
X101378D02*
X97031D01*
Y95850D01*
X101378D01*
Y101378D01*
D02*
G37*
G36*
X19488Y99134D02*
X12008D01*
Y91654D01*
X19488D01*
Y99134D01*
D02*
G37*
G36*
X181890Y97985D02*
X180913Y97856D01*
X180004Y97480D01*
X179222Y96880D01*
X178623Y96099D01*
X178246Y95189D01*
X178117Y94213D01*
X178246Y93236D01*
X178623Y92326D01*
X179222Y91545D01*
X180004Y90946D01*
X180913Y90569D01*
X181890Y90440D01*
X182866Y90569D01*
X183776Y90946D01*
X184557Y91545D01*
X185157Y92326D01*
X185534Y93236D01*
X185662Y94213D01*
X185534Y95189D01*
X185157Y96099D01*
X184557Y96880D01*
X183776Y97480D01*
X182866Y97856D01*
X181890Y97985D01*
D02*
G37*
G36*
X182874Y88070D02*
Y85197D01*
X185747D01*
X185741Y85245D01*
X185343Y86206D01*
X184709Y87032D01*
X183883Y87665D01*
X182922Y88064D01*
X182874Y88070D01*
D02*
G37*
G36*
X180905D02*
X180858Y88064D01*
X179896Y87665D01*
X179071Y87032D01*
X178437Y86206D01*
X178039Y85245D01*
X178033Y85197D01*
X180905D01*
Y88070D01*
D02*
G37*
G36*
X185747Y83228D02*
X182874D01*
Y80355D01*
X182922Y80362D01*
X183883Y80760D01*
X184709Y81393D01*
X185343Y82219D01*
X185741Y83181D01*
X185747Y83228D01*
D02*
G37*
G36*
X180905D02*
X178033D01*
X178039Y83181D01*
X178437Y82219D01*
X179071Y81393D01*
X179896Y80760D01*
X180858Y80362D01*
X180905Y80355D01*
Y83228D01*
D02*
G37*
%LPD*%
D14*
X65453Y142126D02*
X85925D01*
X89075Y138976D01*
D41*
X72146Y170473D02*
D03*
X29626Y155118D02*
D03*
X39862Y155318D02*
D03*
X50886D02*
D03*
X166142Y155448D02*
D03*
X156398Y155512D02*
D03*
X145768Y155318D02*
D03*
X84350Y106299D02*
D03*
X72539D02*
D03*
X131988Y170473D02*
D03*
X127264D02*
D03*
X122539D02*
D03*
X117815D02*
D03*
X113091D02*
D03*
X108366D02*
D03*
X103642D02*
D03*
X98917D02*
D03*
X94193D02*
D03*
X89468D02*
D03*
X68209D02*
D03*
X84744D02*
D03*
X76083D02*
D03*
D43*
X120472Y99213D02*
X127559D01*
X115453D02*
X120472D01*
X91831Y118405D02*
X101279D01*
X120472Y99213D01*
X64567Y99606D02*
X71260D01*
X61811Y102362D02*
X64567Y99606D01*
X55118Y102362D02*
X61811D01*
X91831Y99213D02*
Y118405D01*
X115059Y99213D02*
X115453D01*
X91831Y118405D02*
Y142224D01*
D53*
X181890Y94213D02*
D03*
Y84213D02*
D03*
Y104213D02*
D03*
X15748Y105394D02*
D03*
X159035Y125197D02*
D03*
D54*
X181890Y114213D02*
D03*
X15748Y95394D02*
D03*
D55*
X149035Y125197D02*
D03*
D56*
X71260Y99606D02*
D03*
X89075Y86221D02*
D03*
D57*
X150492Y110236D02*
D03*
X127559Y111024D02*
D03*
Y99213D02*
D03*
X65453Y142224D02*
D03*
X89075Y138976D02*
D03*
X115453Y99213D02*
D03*
X91831Y142224D02*
D03*
Y118405D02*
D03*
Y99213D02*
D03*
D58*
X104429Y137402D02*
D03*
X99705D02*
D03*
Y132677D02*
D03*
X104429D02*
D03*
X113878Y137402D02*
D03*
X109153D02*
D03*
Y132677D02*
D03*
X113878D02*
D03*
X99705Y127953D02*
D03*
Y123228D02*
D03*
X104429Y127953D02*
D03*
Y123228D02*
D03*
X113878Y127953D02*
D03*
X109153D02*
D03*
X113878Y123228D02*
D03*
X109153D02*
D03*
D59*
X55118Y102362D02*
D03*
X102362Y102362D02*
D03*
X141732Y102362D02*
D03*
M02*
