G04*
G04 #@! TF.GenerationSoftware,Altium Limited,Altium Designer,18.1.6 (161)*
G04*
G04 Layer_Color=32896*
%FSLAX25Y25*%
%MOIN*%
G70*
G01*
G75*
%ADD15C,0.00394*%
D15*
X141732Y102362D02*
G03*
X141732Y102362I-39370J0D01*
G01*
X46554Y80709D02*
X44980D01*
X44193Y81496D01*
X44980Y82283D01*
X46554D01*
X43799Y83070D02*
Y84644D01*
X46554Y85432D02*
X44193D01*
Y86612D01*
X44587Y87006D01*
X44980D01*
X45374Y86612D01*
Y85432D01*
Y86612D01*
X45767Y87006D01*
X46161D01*
X46554Y86612D01*
Y85432D01*
X44193Y87793D02*
X45767D01*
X46554Y88580D01*
X45767Y89367D01*
X44193D01*
X45374D01*
Y87793D01*
X46554Y90154D02*
Y91729D01*
Y90942D01*
X44193D01*
X150885Y84645D02*
X151279Y84252D01*
Y83464D01*
X150885Y83071D01*
X149311D01*
X148917Y83464D01*
Y84252D01*
X149311Y84645D01*
X150098D01*
Y83858D01*
X148917Y85432D02*
X151279D01*
X148917Y87007D01*
X151279D01*
Y87794D02*
X148917D01*
Y88974D01*
X149311Y89368D01*
X150885D01*
X151279Y88974D01*
Y87794D01*
X150787Y134251D02*
Y131890D01*
X149607D01*
X149213Y132283D01*
Y132677D01*
X149607Y133071D01*
X150787D01*
X149607D01*
X149213Y133464D01*
Y133858D01*
X149607Y134251D01*
X150787D01*
X148426D02*
X146852D01*
X147639D01*
Y131890D01*
M02*
