G04*
G04 #@! TF.GenerationSoftware,Altium Limited,Altium Designer,18.1.6 (161)*
G04*
G04 Layer_Physical_Order=1*
G04 Layer_Color=255*
%FSLAX25Y25*%
%MOIN*%
G70*
G01*
G75*
%ADD14C,0.00787*%
G04:AMPARAMS|DCode=17|XSize=51.18mil|YSize=31.5mil|CornerRadius=3.94mil|HoleSize=0mil|Usage=FLASHONLY|Rotation=270.000|XOffset=0mil|YOffset=0mil|HoleType=Round|Shape=RoundedRectangle|*
%AMROUNDEDRECTD17*
21,1,0.05118,0.02362,0,0,270.0*
21,1,0.04331,0.03150,0,0,270.0*
1,1,0.00787,-0.01181,-0.02165*
1,1,0.00787,-0.01181,0.02165*
1,1,0.00787,0.01181,0.02165*
1,1,0.00787,0.01181,-0.02165*
%
%ADD17ROUNDEDRECTD17*%
%ADD18R,0.03950X0.03900*%
G04:AMPARAMS|DCode=19|XSize=51.18mil|YSize=31.5mil|CornerRadius=3.94mil|HoleSize=0mil|Usage=FLASHONLY|Rotation=0.000|XOffset=0mil|YOffset=0mil|HoleType=Round|Shape=RoundedRectangle|*
%AMROUNDEDRECTD19*
21,1,0.05118,0.02362,0,0,0.0*
21,1,0.04331,0.03150,0,0,0.0*
1,1,0.00787,0.02165,-0.01181*
1,1,0.00787,-0.02165,-0.01181*
1,1,0.00787,-0.02165,0.01181*
1,1,0.00787,0.02165,0.01181*
%
%ADD19ROUNDEDRECTD19*%
G04:AMPARAMS|DCode=20|XSize=55.12mil|YSize=39.37mil|CornerRadius=4.92mil|HoleSize=0mil|Usage=FLASHONLY|Rotation=270.000|XOffset=0mil|YOffset=0mil|HoleType=Round|Shape=RoundedRectangle|*
%AMROUNDEDRECTD20*
21,1,0.05512,0.02953,0,0,270.0*
21,1,0.04528,0.03937,0,0,270.0*
1,1,0.00984,-0.01476,-0.02264*
1,1,0.00984,-0.01476,0.02264*
1,1,0.00984,0.01476,0.02264*
1,1,0.00984,0.01476,-0.02264*
%
%ADD20ROUNDEDRECTD20*%
G04:AMPARAMS|DCode=21|XSize=55.12mil|YSize=39.37mil|CornerRadius=4.92mil|HoleSize=0mil|Usage=FLASHONLY|Rotation=180.000|XOffset=0mil|YOffset=0mil|HoleType=Round|Shape=RoundedRectangle|*
%AMROUNDEDRECTD21*
21,1,0.05512,0.02953,0,0,180.0*
21,1,0.04528,0.03937,0,0,180.0*
1,1,0.00984,-0.02264,0.01476*
1,1,0.00984,0.02264,0.01476*
1,1,0.00984,0.02264,-0.01476*
1,1,0.00984,-0.02264,-0.01476*
%
%ADD21ROUNDEDRECTD21*%
%ADD22R,0.04724X0.04331*%
%ADD23R,0.03937X0.07874*%
%ADD24R,0.02756X0.03150*%
%ADD25R,0.00787X0.02559*%
%ADD26R,0.02559X0.00787*%
%ADD27R,0.18504X0.18504*%
%ADD41C,0.02756*%
%ADD43C,0.01968*%
%ADD44C,0.03150*%
%ADD45R,0.01968X0.17323*%
%ADD46R,0.17717X0.01968*%
%ADD47R,0.01968X0.10236*%
%ADD48R,0.09843X0.01968*%
%ADD49R,0.01968X0.15354*%
%ADD50R,0.10630X0.01968*%
%ADD51R,0.08661X0.01968*%
%ADD52R,0.03543X0.19685*%
%ADD53C,0.05906*%
%ADD54R,0.05906X0.05906*%
%ADD55R,0.05906X0.05906*%
%ADD56C,0.03543*%
%ADD57C,0.02362*%
%ADD58C,0.02598*%
G36*
X69532Y173228D02*
Y169213D01*
X69593Y168905D01*
X69767Y168645D01*
X70027Y168471D01*
X70335Y168410D01*
X73878D01*
X74185Y168471D01*
X74446Y168645D01*
X74620Y168905D01*
X74681Y169213D01*
Y173228D01*
X77808D01*
Y155680D01*
X77308Y155413D01*
X77271Y155438D01*
X76772Y155537D01*
X73819D01*
X73634Y155500D01*
X73622Y155512D01*
X70456D01*
X70267Y155638D01*
X69685Y155754D01*
X69193D01*
Y154823D01*
X69095Y154724D01*
Y151969D01*
Y149213D01*
X69193Y149114D01*
Y148183D01*
X69685D01*
X70267Y148299D01*
X70456Y148425D01*
X73622D01*
X73634Y148437D01*
X73819Y148400D01*
X76772D01*
X77271Y148500D01*
X77694Y148782D01*
X77977Y149206D01*
X78048Y149560D01*
X80813D01*
Y149231D01*
X86337D01*
Y154706D01*
X82625D01*
Y173228D01*
X124322Y173228D01*
X124491Y172976D01*
X124752Y172802D01*
X125059Y172740D01*
X127027D01*
X127335Y172802D01*
X127595Y172976D01*
X127764Y173228D01*
X160791Y173228D01*
X163037Y171357D01*
X167322Y167322D01*
X171357Y163037D01*
X175125Y158516D01*
X178613Y153775D01*
X181809Y148832D01*
X184700Y143706D01*
X187276Y138414D01*
X189529Y132976D01*
X191449Y127412D01*
X193029Y121743D01*
X194265Y115988D01*
X195150Y110170D01*
X195683Y104308D01*
X195861Y98425D01*
X195683Y92542D01*
X195150Y86681D01*
X194265Y80862D01*
X193029Y75107D01*
X191449Y69438D01*
X189529Y63874D01*
X187276Y58437D01*
X184700Y53145D01*
X181809Y48018D01*
X178613Y43076D01*
X175125Y38335D01*
X171357Y33814D01*
X167322Y29528D01*
X163037Y25494D01*
X158516Y21726D01*
X153775Y18237D01*
X148832Y15042D01*
X143706Y12150D01*
X138414Y9574D01*
X132976Y7322D01*
X127412Y5402D01*
X121743Y3821D01*
X115988Y2586D01*
X110170Y1700D01*
X104308Y1168D01*
X98425Y990D01*
X92542Y1168D01*
X86681Y1700D01*
X80862Y2586D01*
X75107Y3821D01*
X69438Y5402D01*
X63874Y7322D01*
X58437Y9574D01*
X53145Y12150D01*
X48018Y15042D01*
X43076Y18237D01*
X38335Y21726D01*
X33814Y25494D01*
X29528Y29528D01*
X25494Y33814D01*
X21726Y38335D01*
X18237Y43076D01*
X15042Y48018D01*
X12150Y53145D01*
X9574Y58437D01*
X7322Y63874D01*
X5402Y69438D01*
X3821Y75107D01*
X2586Y80862D01*
X1700Y86681D01*
X1168Y92542D01*
X990Y98425D01*
X1168Y104308D01*
X1700Y110170D01*
X2586Y115988D01*
X3821Y121743D01*
X5402Y127412D01*
X7322Y132976D01*
X9574Y138414D01*
X12150Y143706D01*
X15042Y148832D01*
X18237Y153775D01*
X21726Y158516D01*
X25494Y163037D01*
X29528Y167322D01*
X33814Y171357D01*
X36059Y173228D01*
X69532Y173228D01*
D02*
G37*
%LPC*%
G36*
X97146Y165596D02*
X96653D01*
X96071Y165480D01*
X95883Y165354D01*
X92716D01*
X92705Y165343D01*
X92520Y165379D01*
X89567D01*
X89068Y165280D01*
X88644Y164997D01*
X88362Y164574D01*
X88262Y164075D01*
Y159547D01*
X88362Y159048D01*
X88644Y158625D01*
X89016Y158376D01*
Y154706D01*
X88663D01*
Y149231D01*
X94187D01*
X94498Y148860D01*
X94550Y148782D01*
X94973Y148500D01*
X95472Y148400D01*
X98425D01*
X98610Y148437D01*
X98622Y148425D01*
X102201D01*
Y146004D01*
X102201Y146004D01*
X102293Y145543D01*
X102554Y145152D01*
X102741Y144966D01*
X102549Y144504D01*
X99886D01*
Y144291D01*
X96949D01*
Y144031D01*
X92671D01*
X92599Y144079D01*
X91831Y144231D01*
X91063Y144079D01*
X90991Y144031D01*
X86344D01*
Y144488D01*
X86245Y144987D01*
X85962Y145411D01*
X85539Y145694D01*
X85039Y145793D01*
X82087D01*
X81902Y145756D01*
X81890Y145768D01*
X78724D01*
X78535Y145894D01*
X77953Y146010D01*
X77461D01*
Y145079D01*
X77362Y144980D01*
Y142224D01*
X76476D01*
Y141240D01*
X73479D01*
Y139961D01*
X73594Y139378D01*
X73924Y138885D01*
X74314Y138625D01*
X74333Y138286D01*
X74328Y138225D01*
X74290Y138085D01*
X73952Y137859D01*
X73411Y137319D01*
X72949Y137510D01*
Y138599D01*
X70571D01*
Y135433D01*
X68602D01*
Y138599D01*
X66224D01*
Y138599D01*
X66043Y138386D01*
X64098D01*
Y139659D01*
X64789Y140349D01*
X65453Y140217D01*
X66221Y140370D01*
X66872Y140805D01*
X67307Y141456D01*
X67460Y142224D01*
X67307Y142992D01*
X66872Y143644D01*
X66221Y144079D01*
X65453Y144231D01*
X64685Y144079D01*
X64034Y143644D01*
X63599Y142992D01*
X63492Y142459D01*
X62042Y141009D01*
X61781Y140618D01*
X61690Y140157D01*
X61690Y140157D01*
Y138386D01*
X59744D01*
Y136637D01*
X57604D01*
Y136909D01*
X57504Y137409D01*
X57222Y137832D01*
X56798Y138115D01*
X56299Y138214D01*
X51772D01*
X51272Y138115D01*
X50849Y137832D01*
X50566Y137409D01*
X50467Y136909D01*
Y133957D01*
X50504Y133772D01*
X50492Y133760D01*
Y130594D01*
X50366Y130405D01*
X50250Y129823D01*
Y129331D01*
X51181D01*
X51280Y129232D01*
X54036D01*
X56791D01*
X56890Y129331D01*
X57821D01*
Y129823D01*
X57705Y130405D01*
X57579Y130594D01*
Y133760D01*
X57670Y134229D01*
X59744D01*
Y133087D01*
X59531D01*
Y130905D01*
X62894D01*
Y129921D01*
X63878D01*
Y126756D01*
X66256D01*
Y126756D01*
X66437Y126969D01*
X68579D01*
Y126076D01*
X68110Y125984D01*
X64944D01*
X64755Y126110D01*
X64173Y126226D01*
X63681D01*
Y125295D01*
X63583Y125197D01*
Y122441D01*
Y119685D01*
X63681Y119587D01*
Y118656D01*
X64173D01*
X64755Y118772D01*
X64944Y118898D01*
X68110D01*
X68122Y118909D01*
X68307Y118873D01*
X71260D01*
X71759Y118972D01*
X72182Y119255D01*
X72465Y119678D01*
X72564Y120177D01*
Y124705D01*
X72465Y125204D01*
X72182Y125627D01*
X71759Y125910D01*
X71260Y126009D01*
X70988D01*
Y126969D01*
X72736D01*
Y129535D01*
X74572Y131371D01*
X74572Y131371D01*
X74833Y131762D01*
X74849Y131841D01*
X75349Y131791D01*
Y129626D01*
X75464Y129044D01*
X75794Y128550D01*
X76288Y128220D01*
X76870Y128105D01*
X77362D01*
Y131890D01*
X79232D01*
Y129134D01*
X79331Y129035D01*
Y128105D01*
X79823D01*
X80405Y128220D01*
X80594Y128347D01*
X83760D01*
X83772Y128358D01*
X83957Y128321D01*
X86910D01*
X87409Y128421D01*
X87832Y128703D01*
X88115Y129127D01*
X88214Y129626D01*
Y130946D01*
X88352Y131038D01*
X91936Y134623D01*
X92815D01*
Y129921D01*
Y125197D01*
X92815Y120797D01*
X92815Y120688D01*
X92800Y120658D01*
X92684Y120559D01*
X92684Y120559D01*
X92684Y120559D01*
Y120559D01*
X92286Y120322D01*
X91831Y120413D01*
X91063Y120260D01*
X90991Y120212D01*
X86738D01*
Y120669D01*
X86638Y121169D01*
X86356Y121592D01*
X85932Y121875D01*
X85433Y121974D01*
X82480D01*
X82295Y121937D01*
X82284Y121949D01*
X79117D01*
X78929Y122075D01*
X78347Y122191D01*
X77854D01*
Y121260D01*
X77756Y121161D01*
Y118405D01*
X76870D01*
Y117421D01*
X73872D01*
Y116142D01*
X73988Y115559D01*
X74039Y115484D01*
X73772Y114984D01*
X49920D01*
X49833Y115421D01*
X49572Y115812D01*
X49181Y116073D01*
X48720Y116165D01*
X44390D01*
X43929Y116073D01*
X43538Y115812D01*
X43277Y115421D01*
X43185Y114961D01*
Y114856D01*
X42849Y114631D01*
X42849Y114631D01*
X24816Y96598D01*
X19488D01*
Y99134D01*
X12008D01*
Y96047D01*
X11880Y95855D01*
X11788Y95394D01*
X11880Y94933D01*
X12008Y94741D01*
Y91654D01*
X19488D01*
Y94190D01*
X25315D01*
X25315Y94189D01*
X25776Y94281D01*
X26166Y94542D01*
X42747Y111122D01*
X43209Y110931D01*
Y107776D01*
X43341Y107643D01*
X43277Y107547D01*
X43185Y107087D01*
Y104724D01*
X43277Y104264D01*
X43538Y103873D01*
X43929Y103612D01*
X44390Y103520D01*
X46386D01*
X51577Y98329D01*
X52163Y97937D01*
X52854Y97800D01*
X69420D01*
X69435Y97781D01*
X69969Y97371D01*
X70592Y97113D01*
X71260Y97025D01*
X71928Y97113D01*
X72550Y97371D01*
X73085Y97781D01*
X73099Y97800D01*
X90407D01*
X90412Y97793D01*
X91063Y97358D01*
X91831Y97206D01*
X92599Y97358D01*
X92671Y97406D01*
X95745D01*
Y97047D01*
X95836Y96586D01*
X96097Y96196D01*
X96488Y95935D01*
X96949Y95843D01*
X99311D01*
X99772Y95935D01*
X99867Y95999D01*
X100000Y95866D01*
X104134D01*
X104266Y95999D01*
X104362Y95935D01*
X104823Y95843D01*
X107185D01*
X107646Y95935D01*
X108037Y96196D01*
X108298Y96586D01*
X108389Y97047D01*
Y101378D01*
X108298Y101839D01*
X108037Y102229D01*
X107646Y102490D01*
X107208Y102578D01*
Y103722D01*
X107646Y103809D01*
X108037Y104070D01*
X108298Y104460D01*
X108389Y104921D01*
Y109252D01*
X108298Y109713D01*
X108037Y110103D01*
X107646Y110365D01*
X107208Y110452D01*
Y116339D01*
X112058D01*
X112266Y115839D01*
X110271Y113844D01*
X110010Y113453D01*
X109918Y112992D01*
X109918Y112992D01*
Y82487D01*
X105841Y78411D01*
X105580Y78020D01*
X105489Y77559D01*
X105489Y77559D01*
Y18898D01*
X103937D01*
Y9449D01*
X109449D01*
Y18898D01*
X107897D01*
Y77060D01*
X111974Y81137D01*
X112235Y81527D01*
X112326Y81988D01*
Y102189D01*
X112451Y102236D01*
X112826Y102272D01*
X113054Y101932D01*
X113477Y101649D01*
X113976Y101550D01*
X114249D01*
Y100776D01*
X114033Y100632D01*
X113599Y99981D01*
X113446Y99213D01*
X113599Y98444D01*
X114033Y97793D01*
X114685Y97358D01*
X115453Y97206D01*
X116221Y97358D01*
X116872Y97793D01*
X117307Y98444D01*
X117460Y99213D01*
X117307Y99981D01*
X116872Y100632D01*
X116657Y100776D01*
Y101483D01*
X117126Y101575D01*
X120292D01*
X120481Y101449D01*
X121063Y101333D01*
X121555D01*
Y102264D01*
X121653Y102362D01*
Y105118D01*
Y107874D01*
X121555Y107973D01*
Y108903D01*
X121063D01*
X120481Y108787D01*
X120292Y108661D01*
X117126D01*
X116657Y108753D01*
Y118406D01*
X116634Y118522D01*
Y120063D01*
X117043D01*
Y120260D01*
X117717D01*
Y121654D01*
X119685D01*
Y120260D01*
X120980D01*
Y122024D01*
X126371D01*
X133760Y114636D01*
Y111811D01*
X138091D01*
Y116535D01*
X135266D01*
X128665Y123137D01*
X128856Y123599D01*
X145295D01*
Y121457D01*
X152776D01*
Y128937D01*
X145295D01*
Y126007D01*
X120768D01*
Y131496D01*
Y136197D01*
X161706D01*
X169268Y128635D01*
Y112205D01*
X169268Y112205D01*
X169360Y111744D01*
X169621Y111353D01*
X177613Y103361D01*
X178004Y103100D01*
X178329Y103035D01*
X178623Y102326D01*
X179222Y101545D01*
X180004Y100946D01*
X180913Y100569D01*
X181890Y100440D01*
X182866Y100569D01*
X183776Y100946D01*
X184557Y101545D01*
X185157Y102326D01*
X185534Y103236D01*
X185662Y104213D01*
X185534Y105189D01*
X185157Y106099D01*
X184557Y106880D01*
X183776Y107480D01*
X182866Y107857D01*
X181890Y107985D01*
X180913Y107857D01*
X180004Y107480D01*
X179222Y106880D01*
X178782Y106306D01*
X178173Y106207D01*
X171677Y112704D01*
Y129134D01*
X171585Y129595D01*
X171324Y129985D01*
X171324Y129985D01*
X163999Y137310D01*
X164190Y137772D01*
X164856D01*
X180685Y121942D01*
Y117953D01*
X178150D01*
Y110473D01*
X185630D01*
Y117953D01*
X183094D01*
Y122441D01*
X183094Y122441D01*
X183002Y122902D01*
X182741Y123293D01*
X182741Y123293D01*
X166206Y139828D01*
X165815Y140089D01*
X165354Y140181D01*
X165354Y140181D01*
X118701D01*
X118584Y140157D01*
X117043D01*
Y140567D01*
X116634D01*
Y144071D01*
X122146D01*
X122146Y144071D01*
X122607Y144163D01*
X122997Y144424D01*
X124572Y145999D01*
X124833Y146390D01*
X124925Y146850D01*
X124925Y146851D01*
Y147940D01*
X125394Y148031D01*
X128560D01*
X128749Y147906D01*
X129331Y147790D01*
X129823D01*
Y148721D01*
X129921Y148819D01*
Y151575D01*
Y154331D01*
X129823Y154429D01*
Y155360D01*
X129331D01*
X128749Y155244D01*
X128560Y155118D01*
X125394D01*
X125382Y155106D01*
X125197Y155143D01*
X122244D01*
X121881Y155071D01*
X121381Y155357D01*
Y157505D01*
X121383Y157506D01*
X121881Y157726D01*
X122139Y157555D01*
X122638Y157455D01*
X125591D01*
X125776Y157492D01*
X125787Y157480D01*
X128954D01*
X129142Y157354D01*
X129724Y157238D01*
X130217D01*
Y158169D01*
X130315Y158268D01*
Y161024D01*
Y163779D01*
X130217Y163878D01*
Y164809D01*
X129724D01*
X129142Y164693D01*
X128954Y164567D01*
X125787D01*
X125776Y164555D01*
X125591Y164592D01*
X122638D01*
X122139Y164493D01*
X121715Y164210D01*
X121432Y163787D01*
X121333Y163287D01*
Y162228D01*
X120172D01*
Y163761D01*
X114647D01*
Y158286D01*
X118444D01*
X118973Y157757D01*
Y155354D01*
X118781Y155287D01*
X118473Y155271D01*
X118261Y155588D01*
X118261Y155588D01*
X116698Y157151D01*
X116307Y157412D01*
X115847Y157503D01*
X115846Y157503D01*
X111315D01*
X111061Y157824D01*
X111263Y158286D01*
X112322D01*
Y163761D01*
X106797D01*
Y158286D01*
X108355D01*
Y157468D01*
X108355Y157468D01*
X108447Y157008D01*
X108708Y156617D01*
X109877Y155448D01*
X109877Y155448D01*
X110239Y155206D01*
X110244Y155169D01*
X110001Y154706D01*
X106797D01*
X106486Y155077D01*
X106434Y155155D01*
X106011Y155438D01*
X105512Y155537D01*
X102559D01*
X102374Y155500D01*
X102362Y155512D01*
X98622D01*
X98610Y155500D01*
X98425Y155537D01*
X95472D01*
X94973Y155438D01*
X94550Y155155D01*
X94498Y155077D01*
X94297Y154837D01*
X93834Y154919D01*
Y158268D01*
X95883D01*
X96071Y158142D01*
X96653Y158026D01*
X97146D01*
Y158957D01*
X97244Y159055D01*
Y161811D01*
Y164567D01*
X97146Y164665D01*
Y165596D01*
D02*
G37*
G36*
X99606D02*
X99114D01*
Y162795D01*
X101128D01*
Y164075D01*
X101012Y164657D01*
X100682Y165151D01*
X100189Y165480D01*
X99606Y165596D01*
D02*
G37*
G36*
X132677Y164809D02*
X132185D01*
Y162008D01*
X134198D01*
Y163287D01*
X134083Y163870D01*
X133753Y164363D01*
X133259Y164693D01*
X132677Y164809D01*
D02*
G37*
G36*
X101128Y160827D02*
X99114D01*
Y158026D01*
X99606D01*
X100189Y158142D01*
X100682Y158472D01*
X101012Y158965D01*
X101128Y159547D01*
Y160827D01*
D02*
G37*
G36*
X134198Y160039D02*
X132185D01*
Y157238D01*
X132677D01*
X133259Y157354D01*
X133753Y157684D01*
X134083Y158178D01*
X134198Y158760D01*
Y160039D01*
D02*
G37*
G36*
X67224Y155754D02*
X66732D01*
X66150Y155638D01*
X65657Y155308D01*
X65327Y154815D01*
X65211Y154232D01*
Y152953D01*
X67224D01*
Y155754D01*
D02*
G37*
G36*
X132283Y155360D02*
X131791D01*
Y152559D01*
X133805D01*
Y153839D01*
X133689Y154421D01*
X133359Y154914D01*
X132866Y155244D01*
X132283Y155360D01*
D02*
G37*
G36*
X67224Y150984D02*
X65211D01*
Y149705D01*
X65327Y149123D01*
X65657Y148629D01*
X66150Y148299D01*
X66732Y148183D01*
X67224D01*
Y150984D01*
D02*
G37*
G36*
X133805Y150591D02*
X131791D01*
Y147790D01*
X132283D01*
X132866Y147906D01*
X133359Y148235D01*
X133689Y148729D01*
X133805Y149311D01*
Y150591D01*
D02*
G37*
G36*
X75492Y146010D02*
X75000D01*
X74418Y145894D01*
X73924Y145564D01*
X73594Y145070D01*
X73479Y144488D01*
Y143209D01*
X75492D01*
Y146010D01*
D02*
G37*
G36*
X61910Y128937D02*
X59531D01*
Y126756D01*
X61910D01*
Y128937D01*
D02*
G37*
G36*
X160020Y129054D02*
Y126181D01*
X162893D01*
X162886Y126229D01*
X162488Y127190D01*
X161855Y128016D01*
X161029Y128650D01*
X160067Y129048D01*
X160020Y129054D01*
D02*
G37*
G36*
X158051D02*
X158004Y129048D01*
X157042Y128650D01*
X156216Y128016D01*
X155583Y127190D01*
X155184Y126229D01*
X155178Y126181D01*
X158051D01*
Y129054D01*
D02*
G37*
G36*
X57821Y127362D02*
X55020D01*
Y125349D01*
X56299D01*
X56881Y125465D01*
X57375Y125794D01*
X57705Y126288D01*
X57821Y126870D01*
Y127362D01*
D02*
G37*
G36*
X53051D02*
X50250D01*
Y126870D01*
X50366Y126288D01*
X50696Y125794D01*
X51190Y125465D01*
X51772Y125349D01*
X53051D01*
Y127362D01*
D02*
G37*
G36*
X61713Y126226D02*
X61221D01*
X60638Y126110D01*
X60145Y125780D01*
X59815Y125287D01*
X59699Y124705D01*
Y123425D01*
X61713D01*
Y126226D01*
D02*
G37*
G36*
X162893Y124213D02*
X160020D01*
Y121340D01*
X160067Y121346D01*
X161029Y121744D01*
X161855Y122378D01*
X162488Y123203D01*
X162886Y124165D01*
X162893Y124213D01*
D02*
G37*
G36*
X158051D02*
X155178D01*
X155184Y124165D01*
X155583Y123203D01*
X156216Y122378D01*
X157042Y121744D01*
X158004Y121346D01*
X158051Y121340D01*
Y124213D01*
D02*
G37*
G36*
X75886Y122191D02*
X75394D01*
X74812Y122075D01*
X74318Y121745D01*
X73988Y121251D01*
X73872Y120669D01*
Y119390D01*
X75886D01*
Y122191D01*
D02*
G37*
G36*
X61713Y121457D02*
X59699D01*
Y120177D01*
X59815Y119595D01*
X60145Y119101D01*
X60638Y118772D01*
X61221Y118656D01*
X61713D01*
Y121457D01*
D02*
G37*
G36*
X145177Y116535D02*
X140847D01*
Y111811D01*
X141808D01*
Y108483D01*
X141370Y108396D01*
X141274Y108332D01*
X141142Y108465D01*
X137008D01*
X136875Y108332D01*
X136780Y108396D01*
X136319Y108488D01*
X133957D01*
X133496Y108396D01*
X133105Y108135D01*
X132844Y107744D01*
X132753Y107283D01*
Y106924D01*
X131329D01*
X130638Y106787D01*
X130052Y106395D01*
X126282Y102625D01*
X125890Y102039D01*
X125753Y101348D01*
Y100052D01*
X125705Y99981D01*
X125552Y99213D01*
X125705Y98444D01*
X126140Y97793D01*
X126791Y97358D01*
X127559Y97206D01*
X128327Y97358D01*
X128399Y97406D01*
X143248D01*
X148083Y92571D01*
X148669Y92180D01*
X149360Y92042D01*
X178841D01*
X179222Y91545D01*
X180004Y90946D01*
X180913Y90569D01*
X181890Y90440D01*
X182866Y90569D01*
X183776Y90946D01*
X184557Y91545D01*
X185157Y92326D01*
X185534Y93236D01*
X185662Y94213D01*
X185534Y95189D01*
X185157Y96099D01*
X184557Y96880D01*
X183776Y97480D01*
X182866Y97856D01*
X181890Y97985D01*
X180913Y97856D01*
X180004Y97480D01*
X179222Y96880D01*
X178623Y96099D01*
X178439Y95655D01*
X150109D01*
X145273Y100490D01*
X144687Y100882D01*
X143996Y101019D01*
X130438D01*
X130246Y101481D01*
X132077Y103312D01*
X132753D01*
Y102953D01*
X132844Y102492D01*
X133105Y102101D01*
X133496Y101840D01*
X133957Y101749D01*
X136319D01*
X136780Y101840D01*
X136875Y101904D01*
X137008Y101772D01*
X141142D01*
X141274Y101904D01*
X141370Y101840D01*
X141831Y101749D01*
X144193D01*
X144654Y101840D01*
X145045Y102101D01*
X145306Y102492D01*
X145397Y102953D01*
Y107283D01*
X145306Y107744D01*
X145045Y108135D01*
X144654Y108396D01*
X144216Y108483D01*
Y111811D01*
X145177D01*
Y116535D01*
D02*
G37*
G36*
X16732Y109251D02*
Y106378D01*
X19605D01*
X19599Y106426D01*
X19201Y107387D01*
X18567Y108213D01*
X17741Y108846D01*
X16780Y109245D01*
X16732Y109251D01*
D02*
G37*
G36*
X14764Y109251D02*
X14716Y109245D01*
X13755Y108846D01*
X12929Y108213D01*
X12295Y107387D01*
X11897Y106426D01*
X11891Y106378D01*
X14764D01*
Y109251D01*
D02*
G37*
G36*
X124016Y108903D02*
X123524D01*
Y106102D01*
X125537D01*
Y107382D01*
X125421Y107964D01*
X125092Y108458D01*
X124598Y108787D01*
X124016Y108903D01*
D02*
G37*
G36*
X14764Y104410D02*
X11891D01*
X11897Y104362D01*
X12295Y103400D01*
X12929Y102575D01*
X13755Y101941D01*
X14716Y101543D01*
X14764Y101536D01*
Y104410D01*
D02*
G37*
G36*
X19605D02*
X16732D01*
Y101536D01*
X16780Y101543D01*
X17741Y101941D01*
X18567Y102575D01*
X19201Y103400D01*
X19599Y104362D01*
X19605Y104410D01*
D02*
G37*
G36*
X125537Y104134D02*
X123524D01*
Y101333D01*
X124016D01*
X124598Y101449D01*
X125092Y101779D01*
X125421Y102272D01*
X125537Y102854D01*
Y104134D01*
D02*
G37*
G36*
X182874Y88070D02*
Y85197D01*
X185747D01*
X185741Y85245D01*
X185343Y86206D01*
X184709Y87032D01*
X183883Y87665D01*
X182922Y88064D01*
X182874Y88070D01*
D02*
G37*
G36*
X180905D02*
X180858Y88064D01*
X179896Y87665D01*
X179071Y87032D01*
X178437Y86206D01*
X178039Y85245D01*
X178033Y85197D01*
X180905D01*
Y88070D01*
D02*
G37*
G36*
X185747Y83228D02*
X182874D01*
Y80355D01*
X182922Y80362D01*
X183883Y80760D01*
X184709Y81393D01*
X185343Y82219D01*
X185741Y83181D01*
X185747Y83228D01*
D02*
G37*
G36*
X180905D02*
X178033D01*
X178039Y83181D01*
X178437Y82219D01*
X179071Y81393D01*
X179896Y80760D01*
X180858Y80362D01*
X180905Y80355D01*
Y83228D01*
D02*
G37*
G36*
X93126Y19110D02*
X91142D01*
Y15157D01*
X93126D01*
Y19110D01*
D02*
G37*
G36*
X89173D02*
X87189D01*
Y15157D01*
X89173D01*
Y19110D01*
D02*
G37*
G36*
X93126Y13189D02*
X91142D01*
Y9236D01*
X93126D01*
Y13189D01*
D02*
G37*
G36*
X89173D02*
X87189D01*
Y9236D01*
X89173D01*
Y13189D01*
D02*
G37*
%LPD*%
G36*
X104800Y112975D02*
Y110452D01*
X104362Y110365D01*
X104266Y110301D01*
X104134Y110433D01*
X100052D01*
X99855Y110565D01*
X99311Y110673D01*
X99114D01*
Y107087D01*
Y103500D01*
X99311D01*
X99855Y103608D01*
X100052Y103740D01*
X104134D01*
X104266Y103873D01*
X104362Y103809D01*
X104800Y103722D01*
Y102578D01*
X104362Y102490D01*
X104266Y102427D01*
X104134Y102559D01*
X100000D01*
X99867Y102427D01*
X99772Y102490D01*
X99311Y102582D01*
X96949D01*
X96488Y102490D01*
X96097Y102229D01*
X95836Y101839D01*
X95745Y101378D01*
Y101019D01*
X92671D01*
X92599Y101067D01*
X92373Y101112D01*
X92128Y101275D01*
X91437Y101413D01*
X73099D01*
X73085Y101431D01*
X72550Y101842D01*
X71928Y102100D01*
X71260Y102187D01*
X70592Y102100D01*
X69969Y101842D01*
X69435Y101431D01*
X69420Y101413D01*
X53603D01*
X49925Y105090D01*
Y107087D01*
X49833Y107547D01*
X49769Y107643D01*
X49902Y107776D01*
Y111909D01*
X49769Y112042D01*
X49833Y112138D01*
X49920Y112575D01*
X103248D01*
X103248Y112575D01*
X103709Y112667D01*
X104100Y112928D01*
X104338Y113166D01*
X104800Y112975D01*
D02*
G37*
%LPC*%
G36*
X97146Y110673D02*
X96949D01*
X96405Y110565D01*
X95944Y110257D01*
X95636Y109796D01*
X95528Y109252D01*
Y108071D01*
X97146D01*
Y110673D01*
D02*
G37*
G36*
Y106102D02*
X95528D01*
Y104921D01*
X95636Y104377D01*
X95944Y103917D01*
X96405Y103608D01*
X96949Y103500D01*
X97146D01*
Y106102D01*
D02*
G37*
%LPD*%
D14*
X170472Y112205D02*
Y129134D01*
X162205Y137402D02*
X170472Y129134D01*
X118701Y137402D02*
X162205D01*
X170472Y112205D02*
X178465Y104213D01*
X181791D01*
X181890Y114213D02*
Y122441D01*
X165354Y138976D02*
X181890Y122441D01*
X118701Y138976D02*
X165354D01*
X118701Y124803D02*
X149035D01*
X115453Y99213D02*
Y105118D01*
X43701Y113779D02*
X46555D01*
X25315Y95394D02*
X43701Y113779D01*
X12992Y95394D02*
X25315D01*
X106693Y77559D02*
X111122Y81988D01*
X106693Y14173D02*
Y77559D01*
X85433Y131890D02*
X87500D01*
X91437Y135827D01*
X143012Y105118D02*
Y114173D01*
X115453Y105118D02*
Y107087D01*
X115453Y107087D01*
Y105118D02*
Y107087D01*
X46555Y113779D02*
X103248D01*
X104429Y114961D01*
X62894Y135433D02*
Y140157D01*
Y135433D02*
Y135433D01*
Y140157D02*
X64862Y142126D01*
X65453D01*
X89075Y138976D02*
X94882D01*
X74803Y137008D02*
X94488D01*
X73721Y132223D02*
Y135925D01*
X71419Y129921D02*
X73721Y132223D01*
X69587Y129921D02*
X71419D01*
X73721Y135925D02*
X74803Y137008D01*
X94488D02*
X94882Y137402D01*
X54036Y135433D02*
X62894D01*
X69587Y129921D02*
X69784Y129725D01*
Y122441D02*
Y129725D01*
X103642Y152205D02*
X109323D01*
X109559Y151969D01*
X103504Y152205D02*
X103642D01*
X103405Y151969D02*
X103642Y152205D01*
X117409Y149292D02*
Y151969D01*
X116542Y148425D02*
X117409Y149292D01*
X107972Y148425D02*
X116542D01*
X106004Y146457D02*
X107972Y148425D01*
X106004Y142224D02*
Y146457D01*
X109452Y146457D02*
X116936D01*
X107579Y144584D02*
X109452Y146457D01*
X107579Y142224D02*
Y144584D01*
X116936Y146457D02*
X120177Y149698D01*
X122146Y145276D02*
X123721Y146850D01*
X109941Y145276D02*
X122146D01*
X109153Y144488D02*
X109941Y145276D01*
X117409Y161024D02*
X124114D01*
X117409D02*
X120177Y158256D01*
Y149698D02*
Y158256D01*
X123721Y146850D02*
Y151575D01*
X117409Y151969D02*
Y154736D01*
X115847Y156299D02*
X117409Y154736D01*
X110728Y156299D02*
X115847D01*
X109559Y157468D02*
X110728Y156299D01*
X109559Y157468D02*
Y161024D01*
X103405Y146004D02*
Y151969D01*
Y146004D02*
X104429Y144980D01*
Y142224D02*
Y144980D01*
X113878Y115748D02*
Y118406D01*
X111122Y112992D02*
X113878Y115748D01*
X111122Y81988D02*
Y112992D01*
X91831Y118405D02*
X98130D01*
X126870Y123228D02*
X135925Y114173D01*
X118701Y123228D02*
X126870D01*
X113878D02*
X115453Y121654D01*
X109153Y127953D02*
X113878Y123228D01*
X106791Y130315D02*
X109153Y127953D01*
X115453Y121654D02*
X118701D01*
X101279Y135827D02*
Y142224D01*
Y135827D02*
X102854Y134252D01*
X104429Y132677D02*
X106791Y130315D01*
X102854Y134252D02*
X104429Y132677D01*
X102854Y134252D02*
Y142224D01*
X115453Y107087D02*
Y118406D01*
X104429Y114961D02*
Y118406D01*
X106004Y99213D02*
Y118406D01*
Y99213D02*
X106004Y99213D01*
X91437Y135827D02*
X94882D01*
X109153Y142224D02*
Y144488D01*
D17*
X143012Y105118D02*
D03*
X135138D02*
D03*
X98130Y107087D02*
D03*
X106004D02*
D03*
Y99213D02*
D03*
X98130D02*
D03*
D18*
X109559Y161024D02*
D03*
X117409D02*
D03*
X109559Y151969D02*
D03*
X117409D02*
D03*
X83575D02*
D03*
X91425D02*
D03*
D19*
X46555Y113779D02*
D03*
Y105905D02*
D03*
D20*
X115453Y105118D02*
D03*
X122539D02*
D03*
X131201Y161024D02*
D03*
X124114D02*
D03*
X130807Y151575D02*
D03*
X123721D02*
D03*
X68209Y151969D02*
D03*
X75295D02*
D03*
X98130Y161811D02*
D03*
X91043D02*
D03*
X76870Y118405D02*
D03*
X83957D02*
D03*
X96949Y151969D02*
D03*
X104035D02*
D03*
X76476Y142224D02*
D03*
X83563D02*
D03*
X78347Y131890D02*
D03*
X85433D02*
D03*
X69784Y122441D02*
D03*
X62697D02*
D03*
D21*
X54036Y135433D02*
D03*
Y128347D02*
D03*
D22*
X69587Y129921D02*
D03*
X62894D02*
D03*
Y135433D02*
D03*
X69587D02*
D03*
D23*
X106693Y14173D02*
D03*
X90158Y14173D02*
D03*
D24*
X135925Y114173D02*
D03*
X143012D02*
D03*
D25*
X98130Y142224D02*
D03*
X101279D02*
D03*
X99705D02*
D03*
X104429D02*
D03*
X102854D02*
D03*
X107579D02*
D03*
X106004D02*
D03*
X109153D02*
D03*
X112303D02*
D03*
X110728D02*
D03*
X115453D02*
D03*
X113878D02*
D03*
X99705Y118406D02*
D03*
X98130D02*
D03*
X106004D02*
D03*
X104429D02*
D03*
X107579D02*
D03*
X101279D02*
D03*
X102854D02*
D03*
X112303D02*
D03*
X109153D02*
D03*
X110728D02*
D03*
X113878D02*
D03*
X115453D02*
D03*
D26*
X94882Y138976D02*
D03*
Y135827D02*
D03*
Y134252D02*
D03*
Y137402D02*
D03*
Y131102D02*
D03*
Y129528D02*
D03*
Y132677D02*
D03*
X118701Y138976D02*
D03*
Y137402D02*
D03*
Y135827D02*
D03*
Y132677D02*
D03*
Y131102D02*
D03*
Y134252D02*
D03*
Y127953D02*
D03*
Y129528D02*
D03*
X94882Y126378D02*
D03*
Y124803D02*
D03*
Y127953D02*
D03*
Y123228D02*
D03*
Y121654D02*
D03*
X118701Y124803D02*
D03*
Y123228D02*
D03*
Y126378D02*
D03*
Y121654D02*
D03*
D27*
X106791Y130315D02*
D03*
D41*
X72146Y170473D02*
D03*
X29626Y155118D02*
D03*
X39862Y155318D02*
D03*
X50886D02*
D03*
X166142Y155448D02*
D03*
X156398Y155512D02*
D03*
X145768Y155318D02*
D03*
X84350Y106299D02*
D03*
X72539D02*
D03*
X131988Y170473D02*
D03*
X127264D02*
D03*
X122539D02*
D03*
X117815D02*
D03*
X113091D02*
D03*
X108366D02*
D03*
X103642D02*
D03*
X98917D02*
D03*
X94193D02*
D03*
X89468D02*
D03*
X68209D02*
D03*
X84744D02*
D03*
X76083D02*
D03*
D43*
X68209D02*
X72146D01*
X76083D01*
X131329Y105118D02*
X135138D01*
X127559Y101348D02*
X131329Y105118D01*
X127559Y99213D02*
Y101348D01*
X52854Y99606D02*
X71260D01*
X46555Y105905D02*
X52854Y99606D01*
X143996Y99213D02*
X149360Y93848D01*
X181427D02*
X181791Y94213D01*
X149360Y93848D02*
X181427D01*
X71260Y99606D02*
X91437D01*
X91831Y99213D01*
X127559D02*
X143996D01*
X91831Y142224D02*
X99508D01*
X83563D02*
X91831D01*
X99508D02*
X99508Y142224D01*
X83957Y118405D02*
X91831D01*
Y99213D02*
X97342D01*
D44*
X80216Y151969D02*
Y173622D01*
Y151969D02*
X83575D01*
X91425D02*
X96319D01*
X91043Y161811D02*
X91425Y161429D01*
Y151969D02*
Y161429D01*
X75295Y151969D02*
X80216D01*
D45*
Y181890D02*
D03*
D46*
X79193Y189882D02*
D03*
D47*
X89035Y185748D02*
D03*
X117382Y183780D02*
D03*
X107539Y185748D02*
D03*
X98878Y183780D02*
D03*
D48*
X92972Y179646D02*
D03*
X111476D02*
D03*
D49*
X126043Y181220D02*
D03*
D50*
X121713Y189882D02*
D03*
D51*
X102224D02*
D03*
D52*
X72106Y179055D02*
D03*
D53*
X181890Y94213D02*
D03*
Y84213D02*
D03*
Y104213D02*
D03*
X15748Y105394D02*
D03*
X159035Y125197D02*
D03*
D54*
X181890Y114213D02*
D03*
X15748Y95394D02*
D03*
D55*
X149035Y125197D02*
D03*
D56*
X71260Y99606D02*
D03*
X89075Y86221D02*
D03*
D57*
X150492Y110236D02*
D03*
X127559Y111024D02*
D03*
Y99213D02*
D03*
X65453Y142224D02*
D03*
X89075Y138976D02*
D03*
X115453Y99213D02*
D03*
X91831Y142224D02*
D03*
Y118405D02*
D03*
Y99213D02*
D03*
D58*
X104429Y137402D02*
D03*
X99705D02*
D03*
Y132677D02*
D03*
X104429D02*
D03*
X113878Y137402D02*
D03*
X109153D02*
D03*
Y132677D02*
D03*
X113878D02*
D03*
X99705Y127953D02*
D03*
Y123228D02*
D03*
X104429Y127953D02*
D03*
Y123228D02*
D03*
X113878Y127953D02*
D03*
X109153D02*
D03*
X113878Y123228D02*
D03*
X109153D02*
D03*
M02*
