M48
;Layer_Color=9474304
;FILE_FORMAT=2:5
INCH,LZ
;TYPE=PLATED
T1F00S00C0.01181
T2F00S00C0.01299
T3F00S00C0.01575
T4F00S00C0.02362
T5F00S00C0.03543
%
T01
X0091831Y0099213
Y0118405
X0089075Y0138976
X0091831Y0142224
X0065453
X0115453Y0099213
X0127559
Y0111024
X0150492Y0110236
T02
X0099705Y0123228
Y0127953
Y0132677
Y0137402
X0104429
Y0132677
X0109153
Y0137402
X0113878
Y0132677
Y0127953
X0109153
X0104429
Y0123228
X0109153
X0113878
T03
X0072539Y0106299
X008435
X0050886Y0155318
X0039862
X0029626Y0155118
X0068209Y0170473
X0072146
X0076083
X0084744
X0089468
X0094193
X0098917
X0103642
X0108366
X0113091
X0117815
X0122539
X0127264
X0131988
X0145768Y0155318
X0156398Y0155512
X0166142Y0155448
T04
X007126Y0099606
X0089075Y0086221
T05
X018189Y0084213
Y0094213
Y0104213
Y0114213
X0159035Y0125197
X0149035
X0015748Y0105394
Y0095394
M30
